<?xml version="1.0" standalone="no"?>
<!DOCTYPE svg PUBLIC "-//W3C//DTD SVG 1.1//EN" "http://www.w3.org/Graphics/SVG/1.1/DTD/svg11.dtd" >
<svg xmlns="http://www.w3.org/2000/svg">
<metadata>Generated by IcoMoon</metadata>
<defs>
<font id="iconfont" horiz-adv-x="1024">
<font-face units-per-em="1024" ascent="960" descent="-64" />
<missing-glyph horiz-adv-x="1024" />
<glyph unicode="&#x20;" horiz-adv-x="512" d="" />
<glyph unicode="&#xe900;" glyph-name="accounts" d="M853.333 55.765l-0.128-34.432h-853.035l-0.171 35.541c-0.384 94.891 3.755 149.12 112.939 174.336 119.68 27.605 237.781 52.352 180.992 157.099-168.235 310.4-47.915 486.357 132.736 486.357 177.195 0 300.501-169.429 132.693-486.315-55.125-104.107 58.667-128.853 180.992-157.099 109.653-25.344 113.365-79.915 112.981-175.488zM1024 789.333h-298.667v-85.333h298.667v85.333zM1024 618.667h-298.667v-85.333h298.667v85.333zM1024 448h-298.667v-85.333h298.667v85.333z" />
<glyph unicode="&#xe901;" glyph-name="activity" d="M159.232 405.333h64.171s98.987 358.528 119.424 437.888c6.656 25.813 27.563 31.488 41.173 31.445s35.243-9.557 40.405-31.573c24.789-105.216 132.693-593.408 132.693-593.408s68.139 274.816 82.901 336.683c4.309 18.133 22.869 32.299 42.667 32.299s36.907-14.635 42.667-30.165c13.312-35.883 71.467-182.912 71.552-183.168h67.883c14.763 25.515 42.325 42.667 73.899 42.667 47.104 0 85.333-38.229 85.333-85.333s-38.229-85.333-85.333-85.333c-31.616 0-59.221 17.237-73.984 42.795-40.064 0.043-79.189 0-96.683-0.128-21.461-0.171-33.024 12.331-39.595 26.837l-36.352 90.795s-77.995-314.325-96-383.957c-6.528-25.387-27.563-32.512-41.387-32.341s-36.139 8.448-41.643 33.408c-23.424 106.112-88.789 399.744-133.248 599.595 0 0-66.347-245.931-82.603-302.891-5.547-19.371-18.389-31.189-41.173-31.445h-96.768c-14.763-25.515-42.325-42.667-73.899-42.667-47.104 0-85.333 38.229-85.333 85.333s38.229 85.333 85.333 85.333c31.573 0 59.136-17.152 73.899-42.667z" />
<glyph unicode="&#xe902;" glyph-name="bell" d="M645.845 791.68c-27.477 15.957-44.459 45.653-44.416 77.653v0.128c0.043 50.005-40.021 90.539-89.429 90.539s-89.472-40.533-89.472-90.539v-0.128c0.043-32.043-16.896-61.696-44.416-77.653-199.125-115.712-84.693-499.84-292.779-567.723v-74.624h853.333v74.624c-208.085 67.883-93.653 452.011-292.821 567.723zM512 917.333c23.552 0 42.667-19.157 42.667-42.667 0-23.552-19.115-42.667-42.667-42.667s-42.667 19.115-42.667 42.667c0 23.509 19.115 42.667 42.667 42.667zM640 64c0-68.181-59.392-128-126.763-128s-129.237 59.819-129.237 128h256z" />
<glyph unicode="&#xe903;" glyph-name="cart" d="M194.475 661.333l200.576 200.619c8.491 8.448 19.627 12.715 30.763 12.715 26.155 0 43.52-21.547 43.52-43.904 0-10.667-3.925-21.504-12.757-30.336l-139.093-139.093h-123.008zM706.517 661.333h123.008l-200.576 200.619c-8.491 8.448-19.627 12.715-30.763 12.715-26.155 0-43.52-21.547-43.52-43.904 0-10.667 3.925-21.504 12.757-30.336l139.093-139.093zM0 576v-85.333h27.435c22.784 0 43.563-12.971 53.589-33.451l174.976-435.883h512l175.019 435.797c9.941 20.523 30.805 33.536 53.589 33.536h27.392v85.333h-1024z" />
<glyph unicode="&#xe904;" glyph-name="deal" d="M810.667 270.251c0 182.997-190.507 233.941-336.512 302.549-88.704 46.037-77.483 156.075 49.579 163.499 70.485 4.267 142.976-16.64 208.469-39.637l30.891 140.587c-77.397 23.509-146.645 34.261-208.427 35.883v86.869h-85.333v-91.051c-165.973-22.827-254.635-126.933-254.635-243.2 0-208.043 242.901-239.787 322.389-276.779 108.373-48.469 88.32-149.333-9.771-171.563-85.035-19.243-193.621 14.379-275.2 46.037l-38.784-140.288c76.245-39.381 167.723-60.459 256-61.995v-85.163h85.333v89.813c141.355 19.797 256.213 97.835 256 244.437z" />
<glyph unicode="&#xe905;" glyph-name="envelope" d="M512 417.579l-511.36 414.421h1022.72l-511.36-414.421zM512 307.755l-512 414.933v-658.688h1024v658.688l-512-414.933z" />
<glyph unicode="&#xe906;" glyph-name="feed" d="M810.667 960h-597.333c-117.803 0-213.333-95.531-213.333-213.333v-597.333c0-117.803 95.531-213.333 213.333-213.333h597.333c117.845 0 213.333 95.531 213.333 213.333v597.333c0 117.803-95.488 213.333-213.333 213.333zM263.168 106.667c-51.072 0-92.501 41.344-92.501 92.373s41.429 92.373 92.501 92.373 92.459-41.344 92.459-92.373-41.387-92.373-92.459-92.373zM484.181 106.667c-1.749 171.904-141.397 311.381-313.515 313.131v136.832c248.064-1.749 448.768-202.197 450.603-449.963h-137.088zM716.331 106.667c-0.896 301.355-244.736 544.469-545.664 545.792v136.875c376.747-1.323 681.813-306.304 682.667-682.667h-137.003z" />
<glyph unicode="&#xe907;" glyph-name="folder" d="M469.333 746.667c-69.504 0-98.347 45.141-170.667 128h-298.667v-853.333h1024v725.333h-554.667z" />
<glyph unicode="&#xe908;" glyph-name="gear" d="M1024 379.051v137.899c-70.443 25.045-114.944 32.085-137.344 86.144v0.043c-22.485 54.229 4.267 91.051 36.139 158.165l-97.493 97.493c-66.603-31.659-103.808-58.667-158.165-36.139h-0.043c-54.144 22.443-61.227 67.243-86.144 137.344h-137.899c-24.832-69.76-31.957-114.859-86.144-137.344h-0.043c-54.229-22.528-90.965 4.181-158.165 36.139l-97.493-97.493c31.787-66.901 58.667-103.851 36.139-158.165-22.485-54.229-67.584-61.355-137.344-86.187v-137.899c69.632-24.747 114.859-31.957 137.344-86.144 22.613-54.699-4.864-92.416-36.139-158.165l97.493-97.536c66.645 31.701 103.851 58.667 158.165 36.139h0.043c54.187-22.443 61.269-67.371 86.144-137.344h137.899c24.832 69.803 32 114.773 86.485 137.472h0.043c53.845 22.357 90.453-4.309 157.781-36.309l97.493 97.536c-31.744 66.688-58.667 103.808-36.181 158.123 22.485 54.229 67.755 61.44 137.429 86.229zM512 277.333c-94.251 0-170.667 76.416-170.667 170.667s76.416 170.667 170.667 170.667 170.667-76.416 170.667-170.667-76.416-170.667-170.667-170.667z" />
<glyph unicode="&#xe909;" glyph-name="handshake" d="M483.371 123.733c-7.893-10.752-20.053-16.427-32.384-16.427-8.277 0-16.597 2.56-23.808 7.808-17.877 13.184-21.717 38.229-8.619 56.107l45.952 62.123c13.141 17.792 38.229 21.675 56.107 8.491 17.963-13.056 21.803-38.187 8.576-56.021l-45.824-62.080zM448.171 244.864c13.141 17.835 9.259 42.965-8.576 56.149-17.963 13.141-43.008 9.216-56.192-8.661l-45.781-61.824c-13.184-17.877-9.259-43.051 8.619-56.192 17.792-13.099 42.965-9.301 56.107 8.619l45.824 61.909zM367.104 304.085c13.184 17.792 9.259 42.965-8.661 56.107-17.835 13.099-42.965 9.216-56.064-8.619l-46.208-62.336c-13.141-17.877-8.917-42.453 8.917-55.637 17.963-13.141 42.667-9.771 55.808 8.107l46.208 62.379zM286.123 363.221c13.141 17.877 9.344 42.965-8.661 56.107-17.877 13.184-42.965 9.301-56.107-8.576l-45.867-61.909c-13.141-17.835-9.259-43.008 8.619-56.107s43.008-9.301 56.107 8.619l45.909 61.867zM1024 723.243s-66.347-12.843-113.792-20.437c-91.563-14.677-176.811 17.749-271.403 66.645-18.987 9.771-40.832 19.883-62.208 19.883-19.669 0-38.955-8.917-55.125-27.264-58.283-66.005-92.16-124.373-161.493-164.864-34.176-19.968 5.973-82.517 79.36-56.789 37.461 13.141 74.069 38.187 115.456 71.552 32.512 26.24 52.053 22.357 80.171-5.76 52.821-52.821 230.571-228.309 230.571-228.309 56.192 34.645 103.339 55.979 158.421 76.459v268.885zM574.976 182.997c-6.741-19.584-26.368-42.709-40.661-62.080 12.672-10.027 25.941-14.251 37.632-14.251 30.592 0 50.688 28.629 23.125 56.235l-20.096 20.096zM852.565 330.752c-45.653 45.013-201.899 199.125-247.595 243.755-7.040 6.869-17.963 7.68-25.941 1.877-27.264-19.797-88.832-63.36-125.611-76.288-71.893-25.173-132.907 9.472-146.005 57.984-8.192 30.379 3.968 60.203 31.019 75.989 43.008 25.131 70.699 58.667 104.789 100.821-29.653 22.997-57.6 31.232-84.949 31.232-72.789 0-141.525-58.283-227.669-52.523-58.581 3.84-130.603 17.195-130.603 17.195v-270.208c62.976-13.696 104.747-19.797 167.253-51.157l19.712 26.624c15.531 21.163 40.491 33.792 66.731 33.792 37.12 0 69.205-24.661 79.403-59.221 40.576 0 71.125-25.685 80.981-59.179 35.243 1.323 70.016-22.144 80.939-59.093 49.963 0 86.059-39.253 84.523-85.632l49.835-49.835c15.659-15.701 41.088-15.659 56.789 0 15.701 15.701 15.701 41.131 0 56.832l-71.936 71.979c-9.387 9.387 4.821 23.595 14.208 14.208l86.699-86.741c15.701-15.701 41.088-15.701 56.789 0s15.701 41.088 0 56.789l-106.709 106.752c-9.429 9.301 4.821 23.595 14.208 14.208l115.2-115.243c15.701-15.701 41.088-15.701 56.789 0 15.275 15.189 15.403 39.339 1.152 55.083z" />
<glyph unicode="&#xe90a;" glyph-name="home" d="M896 405.333v-426.667h-256v256h-256v-256h-256v426.667h-128l512 512 512-512h-128zM853.333 657.365v217.301h-128v-89.301l128-128z" />
<glyph unicode="&#xe90b;" glyph-name="magnifier" d="M1015.851 36.437l-264.747 264.747c49.792 68.48 79.232 152.704 79.232 243.669 0 228.907-186.24 415.147-415.189 415.147-228.907 0-415.147-186.24-415.147-415.147 0-228.949 186.24-415.147 415.147-415.147 86.784 0 167.381 26.752 234.112 72.448l266.155-266.155 100.437 100.437zM121.771 544.853c0 161.792 131.627 293.419 293.419 293.419s293.419-131.627 293.419-293.419-131.627-293.419-293.419-293.419c-161.835 0-293.419 131.627-293.419 293.419z" />
<glyph unicode="&#xe90c;" glyph-name="menu" d="M1024 704h-1024v170.667h1024v-170.667zM1024 533.333h-1024v-170.667h1024v170.667zM1024 192h-1024v-170.667h1024v170.667z" />
<glyph unicode="&#xe90d;" glyph-name="phone" d="M788.48-18.176l-50.901-28.075c-297.771-154.496-814.165 746.411-523.904 916.651l48.853 27.179 158.464-275.925-48.597-26.965c-88.192-53.12 117.76-414.165 208.171-364.587l49.579 27.392 158.336-275.669zM370.005 960l-71.68-41.6 158.464-275.883 71.723 41.6-158.507 275.883zM737.493 320.128l-71.68-41.6 158.464-275.925 71.723 41.6-158.507 275.925z" />
<glyph unicode="&#xe90e;" glyph-name="plus" d="M512 960c-282.752 0-512-229.248-512-512s229.248-512 512-512 512 229.248 512 512-229.248 512-512 512zM810.667 362.667h-213.333v-213.333h-170.667v213.333h-213.333v170.667h213.333v213.333h170.667v-213.333h213.333v-170.667z" />
<glyph unicode="&#xe90f;" glyph-name="settings" d="M992.811 117.632l-509.653 509.653c-23.765 23.765-35.925 56.747-33.408 90.24 4.907 63.36-16.853 128.384-65.237 176.896-43.947 43.861-101.376 65.579-158.848 65.579-21.632 0-43.307-3.072-64.213-9.216l135.253-135.253c14.677-67.797-83.584-167.168-152.192-152.192l-135.211 135.253c-6.187-20.992-9.301-42.667-9.301-64.384 0-57.472 21.76-114.816 65.621-158.763 48.427-48.469 113.493-70.187 176.896-65.28 33.408 2.56 66.432-9.643 90.155-33.408l509.696-509.611c19.968-19.968 47.019-31.147 75.221-31.147 58.368 0 106.411 47.275 106.411 106.411 0 27.221-10.411 54.443-31.189 75.221zM917.333 0c-23.595 0-42.667 19.115-42.667 42.667s19.072 42.667 42.667 42.667c23.595 0 42.667-19.115 42.667-42.667s-19.072-42.667-42.667-42.667zM578.773 652.331l227.285 226.901c24.917 24.96 57.515 37.461 90.155 37.461 32.597 0 65.237-12.459 90.155-37.461 25.131-25.045 37.632-57.899 37.632-90.667 0-32.597-12.416-65.195-37.248-90.027l-227.243-226.901-180.736 180.693zM428.16 260.651l-223.019-221.227c-9.685-9.813-18.048-20.821-24.491-33.024l-12.843-24.747-89.6-45.653-35.541 35.584 43.733 91.563 24.747 12.885c12.203 6.4 23.936 14.037 33.707 23.808l223.019 221.227 60.288-60.416z" />
<glyph unicode="&#xe910;" glyph-name="share" d="M213.333 661.333c117.803 0 213.333-95.531 213.333-213.333s-95.531-213.333-213.333-213.333-213.333 95.531-213.333 213.333 95.531 213.333 213.333 213.333zM687.872 146.56c-3.115-12.843-5.205-26.069-5.205-39.893 0-94.251 76.416-170.667 170.667-170.667s170.667 76.416 170.667 170.667-76.416 170.667-170.667 170.667c-49.707 0-94.037-21.589-125.227-55.509l-234.155 124.885c-9.813-27.136-23.424-52.437-40.235-75.264l234.155-124.885zM1024 789.333c0 94.251-76.416 170.667-170.667 170.667s-170.667-76.416-170.667-170.667c0-13.824 2.091-27.051 5.205-39.893l-234.155-124.885c16.853-22.827 30.421-48.085 40.235-75.264l234.155 124.885c31.189-33.92 75.52-55.509 125.227-55.509 94.251 0 170.667 76.416 170.667 170.667z" />
<glyph unicode="&#xe911;" glyph-name="time" d="M512 960c-282.752 0-512-229.248-512-512s229.248-512 512-512 512 229.248 512 512-229.248 512-512 512zM810.667 362.667h-341.333v384h85.333v-298.667h256v-85.333z" />
<glyph unicode="&#xe912;" glyph-name="trash" d="M240.341 20.011c48.427-56.021 159.36-84.011 270.251-84.011 110.976 0 221.824 27.989 270.293 84.011 3.456 17.237 157.781 787.968 157.781 805.632 0 105.515-313.088 134.357-426.667 134.357-212.992 0-426.667-52.992-426.667-134.144 0-17.323 151.723-788.821 155.008-805.845zM514.176 740.395c-179.669 0-325.333 31.829-325.333 71.125s145.664 71.125 325.333 71.125 325.291-31.829 325.291-71.125-145.621-71.125-325.291-71.125z" />
<glyph unicode="&#xe913;" glyph-name="users" d="M454.144 231.253c122.283 28.245 193.664 52.949 138.496 157.099-167.765 316.885-44.459 486.315 132.736 486.315 180.693 0 300.971-175.957 132.693-486.315-56.832-104.747 18.645-129.451 138.325-157.099 105.941-24.491 112.939-76.245 112.939-165.931v-43.989h-768c0 117.12-9.387 181.675 112.811 209.92zM-85.333 21.333h333.184c-1.493 348.885 146.603 226.688 146.603 474.752 0 107.136-69.931 165.248-159.915 165.248-132.907 0-225.365-127.104-99.541-364.757 41.344-78.080-43.989-96.64-135.723-117.803-79.445-18.347-84.608-57.173-84.608-124.459v-32.981z" />
<glyph unicode="&#xe914;" glyph-name="menu-a" d="M512 874.667c235.264 0 426.667-191.403 426.667-426.667s-191.403-426.667-426.667-426.667-426.667 191.403-426.667 426.667 191.403 426.667 426.667 426.667zM512 960c-282.752 0-512-229.248-512-512s229.248-512 512-512 512 229.248 512 512-229.248 512-512 512zM768 234.667h-512v85.333h512v-85.333zM768 405.333h-512v85.333h512v-85.333zM768 576h-512v85.333h512v-85.333z" />
<glyph unicode="&#xe915;" glyph-name="menu-b" d="M512 960c-282.752 0-512-229.248-512-512s229.248-512 512-512 512 229.248 512 512-229.248 512-512 512zM768 234.667h-512v85.333h512v-85.333zM768 405.333h-512v85.333h512v-85.333zM768 576h-512v85.333h512v-85.333z" />
<glyph unicode="&#xe916;" glyph-name="credit-card" d="M938.667 789.333h-853.333c-47.104 0-85.333-38.229-85.333-85.333v-512c0-47.104 38.229-85.333 85.333-85.333h853.333c47.104 0 85.333 38.229 85.333 85.333v512c0 47.104-38.229 85.333-85.333 85.333zM128 542.72c0 18.389 14.891 33.28 33.28 33.28h18.261v-48h-51.541v14.72zM128 510.123h51.541v-41.301h-51.541v41.301zM128 450.901h51.541v-45.568h-18.261c-18.389 0-33.28 14.891-33.28 33.28v12.288zM256 234.667h-128v42.667h128v-42.667zM298.667 438.613c0-18.389-14.891-33.28-33.28-33.28h-18.304v45.568h51.584v-12.288zM298.667 468.821h-51.584v41.301h51.584v-41.301zM298.667 528h-69.504v-122.667h-31.701v170.667h67.925c18.389 0 33.28-14.891 33.28-33.28v-14.72zM469.333 234.667h-128v42.667h128v-42.667zM512 512c0 58.923 47.744 106.667 106.667 106.667 20.651 0 39.979-5.888 56.32-16.085-22.656-23.552-36.565-55.467-36.565-90.581 0-35.157 13.952-67.029 36.565-90.581-16.341-10.197-35.669-16.085-56.32-16.085-58.923 0-106.667 47.744-106.667 106.667zM682.667 234.667h-128v42.667h128v-42.667zM896 234.667h-128v42.667h128v-42.667zM789.333 405.333c-58.88 0-106.667 47.744-106.667 106.667s47.787 106.667 106.667 106.667c58.923 0 106.667-47.744 106.667-106.667s-47.744-106.667-106.667-106.667z" />
<glyph unicode="&#xe917;" glyph-name="log-out" d="M682.667 576v170.667l341.333-298.667-341.333-298.667v170.667h-341.333v256h341.333zM0 874.667v-853.333h597.333v85.333h-512v682.667h512v85.333h-597.333z" />
<glyph unicode="&#xe918;" glyph-name="map" d="M1022.336 600.363c-35.456-41.899-68.864-81.835-83.669-161.067v-285.141l-170.667-105.771v390.869c-14.805 79.232-48.213 119.168-83.669 161.067-38.741 45.867-86.997 102.869-86.997 197.504l0.811 14.72-86.144 62.123-236.587-170.667-275.413 170.667v-768l275.413-170.667 236.587 170.667 236.587-170.667 275.413 170.667v495.701l-1.664-2.005zM469.333 181.12l-170.667-123.093v557.525l170.667 123.136v-557.568zM853.333 960c-89.6 0-170.667-72.619-170.667-162.176 0-133.163 136.021-147.243 170.667-349.824 34.645 202.581 170.667 216.661 170.667 349.824 0 89.557-81.067 162.176-170.667 162.176zM853.333 725.333c-35.328 0-64 28.629-64 64s28.672 64 64 64 64-28.629 64-64-28.672-64-64-64z" />
<glyph unicode="&#xe919;" glyph-name="plus-a" d="M1024 533.333h-426.667v426.667h-170.667v-426.667h-426.667v-170.667h426.667v-426.667h170.667v426.667h426.667z" />
<glyph unicode="&#xe91a;" glyph-name="power-on-off" d="M597.333 448h-170.667v512h170.667v-512zM777.088 885.163l-51.755-68.224c127.317-73.899 213.333-211.413 213.333-368.939 0-235.264-191.403-426.667-426.667-426.667s-426.667 191.403-426.667 426.667c0 157.525 86.016 295.040 213.333 368.939l-51.755 68.224c-147.84-89.728-246.912-251.605-246.912-437.163 0-282.752 229.248-512 512-512s512 229.248 512 512c0 185.557-99.072 347.435-246.912 437.163z" />
<glyph unicode="&#xe91b;" glyph-name="user" d="M888.405 187.904c-146.731 33.877-283.307 63.573-217.173 188.501 201.387 380.245 53.376 583.595-159.232 583.595-216.832 0-361.131-211.157-159.232-583.595 68.139-125.653-73.6-155.349-217.173-188.501-131.115-30.293-136.021-95.403-135.595-209.237l0.171-42.667h1023.573l0.171 41.344c0.512 114.688-3.925 180.139-135.509 210.56z" />
<glyph unicode="&#xe91c;" glyph-name="upload" d="M0 448c0-282.752 229.248-512 512-512s512 229.248 512 512-229.248 512-512 512-512-229.248-512-512zM768 490.667h-170.667v-298.667h-170.667v298.667h-170.667l256 256 256-256z" />
<glyph unicode="&#xe91d;" glyph-name="upload-a" d="M426.667 576h-256l341.333 384 341.333-384h-256v-469.333h-170.667v469.333zM896 106.667v-85.333h-768v85.333h-85.333v-170.667h938.667v170.667h-85.333z" />
<glyph unicode="&#xe91e;" glyph-name="dots-h" d="M256 448c0-70.699-57.301-128-128-128s-128 57.301-128 128 57.301 128 128 128 128-57.301 128-128zM640 448c0-70.699-57.301-128-128-128s-128 57.301-128 128 57.301 128 128 128 128-57.301 128-128zM1024 448c0-70.699-57.301-128-128-128s-128 57.301-128 128 57.301 128 128 128 128-57.301 128-128z" />
<glyph unicode="&#xe91f;" glyph-name="dots-v" d="M512 192c70.699 0 128-57.301 128-128s-57.301-128-128-128-128 57.301-128 128 57.301 128 128 128zM512 576c70.699 0 128-57.301 128-128s-57.301-128-128-128-128 57.301-128 128 57.301 128 128 128zM512 960c70.699 0 128-57.301 128-128s-57.301-128-128-128-128 57.301-128 128 57.301 128 128 128z" />
<glyph unicode="&#xe920;" glyph-name="arrow-down" d="M0 647.253l120.704 120.747 391.467-398.464 391.125 398.464 120.704-120.747-511.829-519.253z" />
<glyph unicode="&#xe921;" glyph-name="sort-down" d="M256 64l256 341.333h-170.667v426.667h-170.667v-426.667h-170.667l256-341.333zM938.667 576h-341.333v85.333h341.333v-85.333zM1024 832h-426.667v-85.333h426.667v85.333zM853.333 490.667h-256v-85.333h256v85.333zM768 320h-170.667v-85.333h170.667v85.333zM682.667 149.333h-85.333v-85.333h85.333v85.333z" />
<glyph unicode="&#xe922;" glyph-name="sort-up" d="M256 832l-256-341.333h170.667v-426.667h170.667v426.667h170.667l-256 341.333zM938.667 576h-341.333v85.333h341.333v-85.333zM1024 832h-426.667v-85.333h426.667v85.333zM853.333 490.667h-256v-85.333h256v85.333zM768 320h-170.667v-85.333h170.667v85.333zM682.667 149.333h-85.333v-85.333h85.333v85.333z" />
<glyph unicode="&#xe923;" glyph-name="arrow-up" d="M0 248.747l120.704-120.747 391.467 398.464 391.125-398.464 120.704 120.747-511.829 519.253z" />
<glyph unicode="&#xe924;" glyph-name="arrow-circle-right" d="M512 960c-282.752 0-512-229.248-512-512s229.248-512 512-512 512 229.248 512 512-229.248 512-512 512zM460.032 149.333l-76.032 74.667 224 224-224 224 76.032 74.667 297.301-298.667-297.301-298.667z" />
<glyph unicode="&#xe925;" glyph-name="calendar" d="M853.333 106.667h-170.667v170.667h170.667v-170.667zM597.333 533.333h-170.667v-170.667h170.667v170.667zM853.333 533.333h-170.667v-170.667h170.667v170.667zM341.333 277.333h-170.667v-170.667h170.667v170.667zM597.333 277.333h-170.667v-170.667h170.667v170.667zM341.333 533.333h-170.667v-170.667h170.667v170.667zM1024 874.667v-938.667h-1024v938.667h128v-42.667c0-47.061 38.272-85.333 85.333-85.333s85.333 38.272 85.333 85.333v42.667h426.667v-42.667c0-47.061 38.272-85.333 85.333-85.333s85.333 38.272 85.333 85.333v42.667h128zM938.667 618.667h-853.333v-597.333h853.333v597.333zM853.333 917.333c0 23.552-19.072 42.667-42.667 42.667s-42.667-19.115-42.667-42.667v-85.333c0-23.552 19.072-42.667 42.667-42.667s42.667 19.115 42.667 42.667v85.333zM256 832c0-23.552-19.072-42.667-42.667-42.667s-42.667 19.115-42.667 42.667v85.333c0 23.552 19.072 42.667 42.667 42.667s42.667-19.115 42.667-42.667v-85.333z" />
<glyph unicode="&#xe926;" glyph-name="cloud-storage" d="M512 832c-170.923 0-310.059-134.016-319.104-302.592-109.653-19.755-192.896-115.456-192.896-230.741 0-129.579 105.088-234.667 234.667-234.667h554.667c129.579 0 234.667 105.088 234.667 234.667 0 115.285-83.243 210.987-192.896 230.741-9.045 168.576-148.181 302.592-319.104 302.592z" />
<glyph unicode="&#xe927;" glyph-name="layout" d="M768 960h256v-256h-256v256zM0-64h682.667v1024h-682.667v-1024zM768 320h256v256h-256v-256zM768-64h256v256h-256v-256z" />
<glyph unicode="&#xe928;" glyph-name="user-circle" d="M512 960c-282.752 0-512-229.248-512-512s229.248-512 512-512 512 229.248 512 512-229.248 512-512 512zM512 21.333c-133.248 0-252.331 61.483-330.624 157.44 11.051 25.088 33.408 42.453 79.659 53.163 95.744 22.101 190.251 41.856 144.768 125.653-134.613 248.32-38.357 389.077 106.197 389.077 141.739 0 240.384-135.552 106.197-389.077-44.16-83.285 46.933-103.083 144.768-125.653 46.165-10.667 68.693-27.947 79.829-52.949-78.336-96.128-197.461-157.653-330.795-157.653z" />
<glyph unicode="&#xe929;" glyph-name="close" d="M1022.037 62.72l-391.851 388.053 387.925 391.424-120.832 119.765-387.84-391.637-391.509 387.755-119.893-119.893 391.936-388.48-388.053-391.851 119.893-119.893 388.779 392.192 391.68-388.267z" />
<glyph unicode="&#xe92a;" glyph-name="control-panel" d="M725.333 490.667c0-23.509-19.115-42.667-42.667-42.667s-42.667 19.157-42.667 42.667 19.115 42.667 42.667 42.667 42.667-19.157 42.667-42.667zM1024 746.667v-597.333c0-117.803-95.488-213.333-213.333-213.333h-597.333c-117.803 0-213.333 95.531-213.333 213.333v597.333c0 117.803 95.531 213.333 213.333 213.333h597.333c117.845 0 213.333-95.531 213.333-213.333zM640 699.691c13.781 2.816 28.032 4.309 42.667 4.309s28.885-1.493 42.667-4.309v89.643c0 23.552-19.072 42.667-42.667 42.667s-42.667-19.115-42.667-42.667v-89.643zM298.667 614.357c13.781 2.816 28.032 4.309 42.667 4.309s28.885-1.493 42.667-4.309v174.976c0 23.552-19.072 42.667-42.667 42.667s-42.667-19.115-42.667-42.667v-174.976zM384 196.309c-13.781-2.816-28.032-4.309-42.667-4.309s-28.885 1.493-42.667 4.309v-89.643c0-23.552 19.072-42.667 42.667-42.667s42.667 19.115 42.667 42.667v89.643zM469.333 405.333c0 70.699-57.301 128-128 128s-128-57.301-128-128 57.301-128 128-128 128 57.301 128 128zM725.333 281.643c-13.781-2.816-28.032-4.309-42.667-4.309s-28.885 1.493-42.667 4.309v-174.976c0-23.552 19.072-42.667 42.667-42.667s42.667 19.115 42.667 42.667v174.976zM810.667 490.667c0 70.699-57.301 128-128 128s-128-57.301-128-128 57.301-128 128-128 128 57.301 128 128z" />
<glyph unicode="&#xe92b;" glyph-name="task" d="M938.667 874.667v-938.667h-853.333v938.667h128c52.48 0 93.056 46.251 128 85.333h341.333c34.987-39.083 75.563-85.333 128-85.333h128zM469.333 832c0-23.552 19.115-42.667 42.667-42.667 23.595 0 42.667 19.115 42.667 42.667s-19.072 42.667-42.667 42.667c-23.552 0-42.667-19.115-42.667-42.667zM853.333 789.333h-170.667l-85.333-85.333h-166.272l-89.728 85.333h-170.667v-768h682.667v768zM298.667 374.229l36.48 33.749c42.667-20.651 69.76-36.352 117.76-70.571 90.155 102.357 149.803 154.283 260.523 223.189l11.904-27.307c-91.349-79.744-158.251-168.491-254.592-341.291-59.435 69.973-99.072 114.603-172.075 182.229z" />
<glyph unicode="&#xe92c;" glyph-name="download" d="M512 64l-341.333 384h256v512h170.667v-512h256l-341.333-384zM896 106.667v-85.333h-768v85.333h-85.333v-170.667h938.667v170.667h-85.333z" />
<glyph unicode="&#xe92d;" glyph-name="move" d="M512 618.667v213.333l384-384-384-384v213.333h-512v341.333h512zM1024 789.333h-128v-682.667h128v682.667z" />
<glyph unicode="&#xe92e;" glyph-name="pencil" d="M843.477 536.619l-539.392-539.264-304.085-61.355 61.355 304.128 539.349 539.307 242.773-242.816zM903.808 596.949l120.192 120.32-242.816 242.731-120.149-120.192 242.773-242.859z" />
<glyph unicode="&#xe92f;" glyph-name="restore-a" d="M576 874.667c-240.171 0-435.712-189.269-446.933-426.667h-129.067l193.579-252.459 190.421 252.459h-126.933c11.093 166.485 149.675 298.667 318.933 298.667 176.469 0 320-143.531 320-320s-143.531-320-320-320c-101.589 0-192.085 47.744-250.709 121.771l-78.805-104.491c81.877-89.088 198.997-145.28 329.515-145.28 247.381 0 448 200.619 448 448s-200.619 448-448 448z" />
<glyph unicode="&#xe930;" glyph-name="restore" d="M576 874.667c-225.621 0-411.691-166.997-442.752-384h-133.248l170.667-252.459 170.667 252.459h-121.472c30.336 169.472 178.091 298.667 356.139 298.667 199.979 0 362.667-162.688 362.667-362.667s-162.688-362.667-362.667-362.667c-128.64 0-241.579 67.541-305.963 168.832l-51.2-75.733c81.749-108.203 211.115-178.432 357.163-178.432 247.339 0 448 200.619 448 448s-200.661 448-448 448z" />
<glyph unicode="&#xe931;" glyph-name="undo" d="M726.443-19.499c467.499 487.296-99.243 890.24-443.051 567.851l105.131-100.352h-388.523v381.739l95.232-95.104c631.211 563.328 1344.427-300.843 631.211-754.133z" />
<glyph unicode="&#xe932;" glyph-name="undo-a" d="M572.885 831.104h-316.885v128.896l-256-229.973 256-239.36v128h316.885c131.029 0 237.269-100.523 237.269-231.552s-106.197-237.781-237.269-237.781h-316.885v-213.333h316.885c249.173 0 451.115 201.984 451.115 451.115s-201.941 443.989-451.115 443.989z" />
<glyph unicode="&#xe933;" glyph-name="check-mark" d="M512 960c-282.752 0-512-229.248-512-512s229.248-512 512-512 512 229.248 512 512-229.248 512-512 512zM458.667 222.208l-192 186.197 79.232 79.275 112.768-106.923 240.768 246.784 79.232-79.232-320-326.101z" />
<glyph unicode="&#xe934;" glyph-name="warning" d="M512 917.333l-512-938.667h1024l-512 938.667zM469.333 576h85.333v-298.667h-85.333v298.667zM512 96c-29.44 0-53.333 23.893-53.333 53.333s23.893 53.333 53.333 53.333 53.333-23.893 53.333-53.333-23.893-53.333-53.333-53.333z" />
<glyph unicode="&#xe935;" glyph-name="filter" d="M42.667 960h938.667l-384-644.011v-379.989l-170.667 128v251.989z" />
<glyph unicode="&#xe936;" glyph-name="bookmark" d="M256 960v-1024l256 224.811 256-224.811v1024h-512zM617.515 371.2l-105.515 56.363-105.472-56.363 21.077 117.717-86.272 82.901 118.485 16.341 52.181 107.648 52.181-107.605 118.485-16.384-86.229-82.901 21.077-117.717z" />
<glyph unicode="&#xe937;" glyph-name="bookmark-a" d="M768 960v-512l-106.667 112.384-106.667-112.384v512h-469.333v-1024h853.333v1024h-170.667zM341.333 21.333h-170.667v853.333h170.667v-853.333z" />
<glyph unicode="&#xe938;" glyph-name="star" d="M512 934.955l156.501-322.901 355.499-49.109-258.731-248.661 63.147-353.237-316.416 169.259-316.459-169.259 63.189 353.237-258.731 248.661 355.499 49.109z" />
<glyph unicode="&#xe939;" glyph-name="user-b" d="M512 832c-105.75 0-192-86.25-192-192s86.25-192 192-192c105.75 0 192 86.25 192 192s-86.25 192-192 192zM512 448c-176.25 0-320-143.75-320-320h64c0 141.75 114.25 256 256 256s256-114.25 256-256h64c0 176.25-143.75 320-320 320zM512 768c71 0 128-57 128-128s-57-128-128-128c-71 0-128 57-128 128s57 128 128 128z" />
<glyph unicode="&#xe93a;" glyph-name="envelope-a" d="M160 832c-52.75 0-96-43.25-96-96v-512c0-52.75 43.25-96 96-96h704c52.75 0 96 43.25 96 96v512c0 52.75-43.25 96-96 96zM160 768h704c2.25 0 4-0.75 6-1.25l-358-247.75-358 247.75c2 0.5 3.75 1.25 6 1.25zM128 707l384-266 384 266v-453.25l-201 168.25-55-38 228.75-191c-1.5-0.25-3-1-4.75-1h-704c-1.75 0-3.25 0.75-4.75 1l228.75 191-55 38-201-168.25z" />
<glyph unicode="&#xe93b;" glyph-name="building-a" d="M224 896c-52.75 0-96-43.25-96-96v-736h320v128h128v-128h320v736c0 52.75-43.25 96-96 96zM224 832h576c18 0 32-14 32-32v-672h-192v128h-256v-128h-192v672c0 18 14 32 32 32zM256 768v-64h128v64zM448 768v-64h128v64zM640 768v-64h128v64zM256 640v-64h128v64zM448 640v-64h128v64zM640 640v-64h128v64zM256 512v-64h128v64zM448 512v-64h128v64zM640 512v-64h128v64zM256 384v-64h128v64zM448 384v-64h128v64zM640 384v-64h128v64zM256 256v-64h64v64zM704 256v-64h64v64z" />
<glyph unicode="&#xe93c;" glyph-name="globe-a" d="M480 896c-229.25 0-416-186.75-416-416s186.75-416 416-416c229.25 0 416 186.75 416 416s-186.75 416-416 416zM448 823v-119h-89c4.5 11.25 8.75 23.25 14 33.25 22.5 45 48.75 73 75 85.75zM512 823c26.25-12.75 52.5-40.75 75-85.75 5.25-10 9.5-22 14-33.25h-89zM337.5 801.75c-7.75-11.5-15.5-23-22-35.75-9.5-19.25-18-40-25.5-62h-80.75c34.5 41.5 78 75.5 128.25 97.75zM622.5 801.75c50.25-22.25 93.75-56.25 128.25-97.75h-80.75c-7.5 22-16 42.75-25.75 62-6.25 12.75-14 24.25-21.75 35.75zM167 640h105.75c-8.75-39.75-13.25-83-15.25-128h-127c4 45.75 16.5 89 36.5 128zM339 640h109v-128h-126.5c2.25 45.75 8 89 17.5 128zM512 640h109c9.5-39 15.25-82.25 17.5-128h-126.5zM687.25 640h105.75c20-39 32.5-82.25 36.75-128h-127.5c-1.75 45-6.25 88.25-15 128zM130.5 448h127c2-45 6.5-88.25 15.25-128h-105.75c-20 39-32.5 82.25-36.5 128zM321.5 448h126.5v-128h-109c-9.5 39-15.25 82.25-17.5 128zM512 448h126.5c-2.25-45.75-8-89-17.5-128h-109zM702.25 448h127.5c-4.25-45.75-16.75-89-36.75-128h-105.75c8.75 39.75 13.25 83 15 128zM209.25 256h80.75c7.5-22 16-42.75 25.5-62 6.5-12.75 14.25-24.25 22-35.75-50.25 22.25-93.75 56.25-128.25 97.75zM359 256h89v-119c-26.25 12.75-52.5 40.75-75 85.75-5.25 10-9.5 22-14 33.25zM512 256h89c-4.5-11.25-8.75-23.25-14-33.25-22.5-45-48.75-73-75-85.75zM670 256h80.75c-34.5-41.5-78-75.5-128.25-97.75 7.75 11.5 15.5 23 21.75 35.75 9.75 19.25 18.25 40 25.75 62z" />
<glyph unicode="&#xe93d;" glyph-name="mobile-phone-a" d="M704 960v-128h-416c-52.75 0-96-43.25-96-96v-576c0-52.75 43.25-96 96-96h384c52.75 0 96 43.25 96 96v800zM288 768h416v-608c0-18-14-32-32-32h-384c-18 0-32 14-32 32v576c0 18 14 32 32 32zM352 704c-17.75 0-32-14.25-32-32v-128c0-17.75 14.25-32 32-32h256c17.75 0 32 14.25 32 32v128c0 17.75-14.25 32-32 32zM384 640h192v-64h-192zM320 384v-64h64v64zM448 384v-64h64v64zM576 384v-64h64v64zM320 256v-64h64v64zM448 256v-64h64v64zM576 256v-64h64v64z" />
<glyph unicode="&#xe93e;" glyph-name="building" d="M896 21.333h85.333v-85.333h-938.667v85.333h85.333v938.667h768v-938.667zM469.333 149.333h-85.333v-170.667h85.333v170.667zM640 149.333h-85.333v-170.667h85.333v170.667zM810.667 874.667h-597.333v-853.333h85.333v213.333h426.667v-213.333h85.333v853.333zM298.667 405.333h85.333v-85.333h-85.333v85.333zM469.333 405.333h85.333v-85.333h-85.333v85.333zM640 405.333h85.333v-85.333h-85.333v85.333zM298.667 533.333h85.333v-85.333h-85.333v85.333zM469.333 533.333h85.333v-85.333h-85.333v85.333zM640 533.333h85.333v-85.333h-85.333v85.333zM298.667 661.333h85.333v-85.333h-85.333v85.333zM469.333 661.333h85.333v-85.333h-85.333v85.333zM640 661.333h85.333v-85.333h-85.333v85.333zM298.667 789.333h85.333v-85.333h-85.333v85.333zM469.333 789.333h85.333v-85.333h-85.333v85.333zM640 789.333h85.333v-85.333h-85.333v85.333z" />
<glyph unicode="&#xe93f;" glyph-name="globe" d="M512 960c282.581 0 512-229.419 512-512s-229.419-512-512-512-512 229.419-512 512 229.419 512 512 512zM621.099 277.333h-218.24c23.296-104.96 61.483-175.531 109.141-245.077 50.944 74.283 87.083 145.493 109.099 245.077zM315.733 277.333h-194.859c52.736-120.533 158.037-212.139 288.213-243.883-44.715 73.941-76.075 156.075-93.355 243.883zM903.125 277.333h-194.859c-16.683-84.821-46.72-165.845-92.8-242.944 128.512 32.555 235.392 123.52 287.659 242.944zM305.579 533.333h-211.712c-11.392-56.021-11.392-114.56 0-170.667h209.707c-5.077 56.704-4.309 114.005 2.005 170.667zM632.448 533.333h-240.939c-7.040-56.576-7.893-114.005-2.261-170.667h245.461c5.675 56.661 4.736 114.048-2.261 170.667zM930.133 533.333h-211.755c6.315-56.661 7.083-113.963 2.048-170.667h209.707c11.093 54.827 11.648 112.981 0 170.667zM411.477 863.104c-131.285-31.232-237.525-123.136-290.603-244.437h198.528c18.56 87.125 50.261 170.027 92.075 244.437zM511.957 865.152c-46.464-75.52-81.493-147.328-105.088-246.485h210.219c-22.784 95.829-57.045 168.448-105.131 246.485zM612.992 862.208c43.221-77.312 73.941-160.427 91.563-243.541h198.571c-52.565 120.149-160.512 211.541-290.133 243.541z" />
<glyph unicode="&#xe940;" glyph-name="mobile-phone" d="M725.333 746.667v-725.333h-426.667v725.333h426.667zM810.667 960h-85.333v-128h-426.667c-47.104 0-85.333-38.229-85.333-85.333v-725.333c0-47.104 38.229-85.333 85.333-85.333h426.667c47.104 0 85.333 38.229 85.333 85.333v938.667zM426.667 106.667h-85.333v42.667h85.333v-42.667zM426.667 192h-85.333v42.667h85.333v-42.667zM426.667 277.333h-85.333v42.667h85.333v-42.667zM554.667 106.667h-85.333v42.667h85.333v-42.667zM554.667 192h-85.333v42.667h85.333v-42.667zM554.667 277.333h-85.333v42.667h85.333v-42.667zM682.667 106.667h-85.333v42.667h85.333v-42.667zM682.667 192h-85.333v42.667h85.333v-42.667zM682.667 277.333h-85.333v42.667h85.333v-42.667zM682.667 405.333h-341.333v256h341.333v-256z" />
<glyph unicode="&#xe941;" glyph-name="user-a" d="M888.405 187.904c-146.731 33.877-283.349 63.573-217.173 188.501 201.344 380.245 53.376 583.595-159.232 583.595-216.832 0-361.173-211.157-159.232-583.595 68.181-125.653-73.6-155.349-217.173-188.501-127.104-29.355-135.595-91.435-135.595-198.955l0.213-52.949h85.12c0 133.717-5.333 151.467 78.421 170.795 121.643 28.032 236.501 54.528 278.4 147.456 15.317 33.92 25.259 89.728-14.421 162.773-87.808 162.091-109.995 302.464-60.715 385.109 57.771 97.067 231.509 96.597 288.725 1.451 49.067-81.536 27.264-222.677-59.861-387.243-38.827-73.344-28.629-128.981-13.227-162.731 42.24-92.459 158.165-119.211 280.917-147.541 80.171-18.603 75.093-37.632 75.093-170.069h85.12l0.213 52.949c0 107.52-8.491 169.6-135.595 198.955z" />
<glyph unicode="&#xe942;" glyph-name="building-b" d="M42.667 21.333h85.333v938.667h768v-938.667h85.333v-85.333h-938.667v85.333zM341.333 149.333v-170.667h128v170.667h-128zM554.667 149.333v-170.667h128v170.667h-128zM298.667 362.667h-85.333v-85.333h85.333v85.333zM640 362.667h-85.333v-85.333h85.333v85.333zM469.333 362.667h-85.333v-85.333h85.333v85.333zM810.667 362.667h-85.333v-85.333h85.333v85.333zM298.667 533.333h-85.333v-85.333h85.333v85.333zM640 533.333h-85.333v-85.333h85.333v85.333zM469.333 533.333h-85.333v-85.333h85.333v85.333zM810.667 533.333h-85.333v-85.333h85.333v85.333zM298.667 704h-85.333v-85.333h85.333v85.333zM640 704h-85.333v-85.333h85.333v85.333zM469.333 704h-85.333v-85.333h85.333v85.333zM810.667 704h-85.333v-85.333h85.333v85.333zM298.667 874.667h-85.333v-85.333h85.333v85.333zM640 874.667h-85.333v-85.333h85.333v85.333zM469.333 874.667h-85.333v-85.333h85.333v85.333zM810.667 874.667h-85.333v-85.333h85.333v85.333z" />
<glyph unicode="&#xe943;" glyph-name="coin" d="M725.333 448c-141.355 0-256-114.645-256-256s114.645-256 256-256 256 114.645 256 256-114.645 256-256 256zM746.667 86.443v-22.443h-21.333v21.291c-22.101 0.384-44.928 5.632-64 15.488l9.728 35.072c20.395-7.936 47.531-16.341 68.779-11.52 24.491 5.547 29.525 30.763 2.432 42.88-19.84 9.259-80.597 17.152-80.597 69.205 0 29.056 22.187 55.125 63.659 60.8v22.784h21.333v-21.717c15.445-0.427 32.768-3.115 52.096-8.96l-7.723-35.157c-16.384 5.76-34.475 10.965-52.139 9.899-31.744-1.835-34.56-29.355-12.373-40.875 36.523-17.152 84.139-29.867 84.139-75.648 0.043-36.608-28.672-56.107-64-61.099zM815.957 520.747c48.299 9.515 92.245 26.709 122.709 51.072v-27.819c0-21.291-16.469-40.747-42.965-56.661-24.789 14.379-51.541 25.6-79.744 33.408zM725.333 768c114.048 0 213.333 42.965 213.333 96s-99.285 96-213.333 96c-114.005 0-213.333-42.965-213.333-96s99.328-96 213.333-96zM729.301 853.717c-12.757 3.84-51.797 7.083-51.797 28.8 0 12.117 14.251 22.912 40.875 25.301v9.515h13.696v-9.003c9.984-0.213 21.077-1.28 33.451-3.84l-4.949-14.592c-9.429 2.176-19.925 4.224-30.208 4.224l-3.072-0.043c-20.565-0.853-22.229-12.245-8.021-17.024 23.339-7.211 54.059-12.459 54.059-31.573 0-15.232-18.517-23.381-41.259-25.429v-9.387h-13.696v8.875c-13.995 0.128-28.843 2.389-41.045 6.485l6.272 14.635c10.411-2.688 23.552-5.376 35.328-5.376l8.875 0.597c15.744 2.261 18.901 12.8 1.493 17.835zM256 298.667c61.653 0 118.4 12.843 158.080 32.768 13.269 29.44 30.464 56.704 51.115 81.024-19.243 44.501-108.331 78.208-209.195 78.208-114.005 0-213.333-42.965-213.333-96s99.328-96 213.333-96zM259.968 384.384c-12.757 3.84-51.797 7.083-51.797 28.8 0 12.117 14.293 22.912 40.875 25.301v9.515h13.696v-9.003c9.984-0.213 21.077-1.28 33.451-3.84l-4.992-14.592c-9.387 2.176-19.883 4.224-30.165 4.224l-3.072-0.043c-20.565-0.853-22.187-12.245-8.021-17.024 23.339-7.211 54.059-12.459 54.059-31.573 0-15.232-18.517-23.381-41.259-25.429v-9.387h-13.696v8.875c-14.037 0.128-28.843 2.389-41.045 6.485l6.272 14.635c10.411-2.688 23.552-5.376 35.328-5.376l8.875 0.597c15.701 2.261 18.901 12.8 1.493 17.835zM430.763 20.395c-39.211-25.173-104.107-41.728-174.763-41.728-114.005 0-213.333 42.965-213.333 96v27.819c48.896-39.168 132.651-59.819 213.333-59.819 52.736 0 106.624 9.003 151.424 26.069 6.528-16.811 14.336-32.981 23.339-48.341zM42.667 181.333v27.776c48.896-39.125 132.651-59.776 213.333-59.776 44.331 0 89.344 6.443 129.195 18.56 1.408-20.011 4.565-39.509 9.301-58.453-37.888-14.805-86.357-24.107-138.496-24.107-114.005 0-213.333 42.965-213.333 96zM42.667 288v27.819c48.896-39.168 132.651-59.819 213.333-59.819 48.085 0 97.067 7.509 139.349 21.717-5.461-21.035-8.96-42.752-10.283-65.109-36.437-12.715-81.195-20.608-129.067-20.608-114.005 0-213.333 42.965-213.333 96zM512 757.333v27.819c48.896-39.168 132.651-59.819 213.333-59.819 80.725 0 164.437 20.651 213.333 59.819v-27.819c0-53.035-99.285-96-213.333-96-114.005 0-213.333 42.965-213.333 96zM512 544v27.819c30.421-24.363 74.411-41.557 122.709-51.072-28.203-7.808-54.912-19.029-79.701-33.408-26.539 15.915-43.008 35.371-43.008 56.661zM512 650.667v27.776c48.896-39.125 132.651-59.776 213.333-59.776 80.725 0 164.437 20.651 213.333 59.776v-27.776c0-53.035-99.285-96-213.333-96-114.005 0-213.333 42.965-213.333 96z" />
<glyph unicode="&#xe944;" glyph-name="arrow-right" d="M1024 448l-384 341.333v-256h-640v-170.667h640v-256z" />
<glyph unicode="&#xe945;" glyph-name="star-a" d="M512 223.147l263.68-159.147-69.973 299.947 232.96 201.813-306.773 26.453-119.893 282.453-119.893-282.453-306.773-26.453 232.533-201.813-69.547-299.947 263.68 159.147z" />
<glyph unicode="&#xe946;" glyph-name="account" d="M512 789.333c94.257 0 170.667-76.41 170.667-170.667v0c0-94.257-76.41-170.667-170.667-170.667v0c-94.257 0-170.667 76.41-170.667 170.667v0c0 94.257 76.41 170.667 170.667 170.667v0zM512 362.667c188.587 0 341.333-76.373 341.333-170.667v-85.333h-682.667v85.333c0 94.293 152.747 170.667 341.333 170.667z" />
<glyph unicode="&#xe947;" glyph-name="currency-usd" d="M298.667 320h85.333c0-46.080 58.453-85.333 128-85.333s128 39.253 128 85.333c0 46.933-44.373 64-138.24 86.613-90.453 22.613-203.093 50.773-203.093 169.387 0 76.373 62.72 141.227 149.333 162.987v93.013h128v-93.013c86.613-21.76 149.333-86.613 149.333-162.987h-85.333c0 46.080-58.453 85.333-128 85.333s-128-39.253-128-85.333c0-46.933 44.373-64 138.24-86.613 90.453-22.613 203.093-50.773 203.093-169.387 0-76.373-62.72-141.227-149.333-162.987v-93.013h-128v93.013c-86.613 21.76-149.333 86.613-149.333 162.987z" />
<glyph unicode="&#xe948;" glyph-name="dashboard" d="M554.667 832v-256h341.333v256zM554.667 64h341.333v426.667h-341.333zM128 64h341.333v256h-341.333zM128 405.333h341.333v426.667h-341.333v-426.667z" />
</font>
</defs>
</svg>
